<svg width="200" height="33" viewBox="0 0 200 33" fill="none" xmlns="http://www.w3.org/2000/svg">
<rect x="0.75" y="0.75" width="198.5" height="26.5" rx="3.25" fill="#191E57"/>
<rect x="0.75" y="0.75" width="198.5" height="26.5" rx="3.25" stroke="#7EE1FF" stroke-width="1.5"/>
<path d="M20.6743 9.56152V10.4854C20.6689 11.71 20.6689 13.085 20.2769 15.1582L18.9019 15.0186C19.2778 13.1709 19.2939 11.7959 19.2993 10.6465H13.5415V9.56152H20.6743ZM12.6177 17.2959V16.1787H15.8081V12.8164H17.1724V16.1787H21.5337V17.2959H12.6177ZM27.3989 9.49707V14.2129H22.6187V9.49707H27.3989ZM23.7573 18.2734V15.0293H25.1431V17.167H30.5679V18.2734H23.7573ZM23.9722 13.1279H26.0347V10.582H23.9722V13.1279ZM28.9351 15.6738V8.72363H30.3101V15.6738H28.9351ZM39.3442 8.71289V12.5371H40.7837V13.665H39.3442V18.4883H37.9907V8.71289H39.3442ZM31.5776 11.2695V10.1738H33.7905V8.86328H35.1655V10.1738H37.3247V11.2695H31.5776ZM31.9751 14.1484C31.9697 12.7842 33.0332 11.812 34.478 11.8174C35.9014 11.812 36.9702 12.7842 36.9702 14.1484C36.9702 15.5127 35.9014 16.4741 34.478 16.4795C33.0332 16.4741 31.9697 15.5127 31.9751 14.1484ZM33.2856 14.1484C33.2856 14.9058 33.7852 15.3569 34.478 15.3516C35.1602 15.3569 35.6597 14.9058 35.6597 14.1484C35.6597 13.3965 35.1602 12.9346 34.478 12.9238C33.7852 12.9346 33.2856 13.3965 33.2856 14.1484ZM44.9302 11.377C44.9248 12.9561 45.7412 14.6479 47.3794 15.3301L46.6382 16.4043C45.4888 15.9155 44.6938 14.9434 44.2534 13.7617C43.813 15.0454 43.002 16.1196 41.8472 16.6514L41.063 15.5664C42.6851 14.8413 43.5229 13.0312 43.5229 11.377V10.7754H41.4497V9.6582H46.9712V10.7754H44.9302V11.377ZM47.938 18.4883V8.71289H49.3237V18.4883H47.938ZM55.6509 9.63672V16.1035H50.9565V9.63672H55.6509ZM52.3101 15.0186H54.2866V10.7109H52.3101V15.0186ZM56.9829 18.4883V8.71289H58.3579V12.3975H59.7974V13.5361H58.3579V18.4883H56.9829ZM63.2886 11.1729C63.2832 12.7573 63.7236 14.3901 65.061 15.2441L64.3198 16.3076C63.4712 15.7974 62.9395 14.9487 62.6279 13.9497C62.2788 15.0562 61.6934 15.9854 60.8071 16.5225L59.9692 15.5127C61.4194 14.6157 61.9565 12.8916 61.9565 11.2373V9.55078H63.2886V11.1729ZM64.0298 13.1279V12.0107H65.2974V8.85254H66.5757V18.0371H65.2974V13.1279H64.0298ZM67.3169 18.4883V8.71289H68.6274V18.4883H67.3169ZM78.6069 16.2217V17.3496H69.6587V16.2217H71.6567V13.8262C70.8994 13.3696 70.4429 12.6768 70.4429 11.8174C70.4429 10.2329 71.9897 9.19092 74.1167 9.18555C76.2329 9.19092 77.7959 10.2329 77.8013 11.8174C77.7959 12.6606 77.3555 13.3428 76.6196 13.7993V16.2217H78.6069ZM71.7964 11.8174C71.7964 12.7734 72.7148 13.3643 74.1167 13.3643C75.4971 13.3643 76.4424 12.7734 76.4478 11.8174C76.4424 10.8345 75.4971 10.2651 74.1167 10.2705C72.7148 10.2651 71.7964 10.8345 71.7964 11.8174ZM73.0103 16.2217H75.2339V14.3203C74.8848 14.3901 74.5088 14.4277 74.1167 14.4277C73.7246 14.4277 73.354 14.3901 73.0103 14.3257V16.2217ZM81.3892 9.72266L81.2495 15.1689H79.8745L79.7349 9.72266H81.3892ZM79.6704 16.6943C79.6597 16.2002 80.0679 15.7974 80.5728 15.8027C81.0508 15.7974 81.4644 16.2002 81.4644 16.6943C81.4644 17.1938 81.0508 17.5967 80.5728 17.5967C80.0679 17.5967 79.6597 17.1938 79.6704 16.6943ZM92.7866 8.71289V12.3438H94.2261V13.4609H92.7866V18.5098H91.4116V8.71289H92.7866ZM85.4604 16.1357V9.61523H90.0474V10.7217H86.8247V15.0078C88.2427 14.9971 89.4136 14.9219 90.7134 14.6963L90.8638 15.8457C89.3438 16.1035 88.0117 16.1411 86.2876 16.1357H85.4604ZM99.0386 8.89551C101.214 8.89014 102.589 9.61523 102.594 10.8076C102.589 11.9946 101.214 12.7036 99.0386 12.6982C96.874 12.7036 95.4722 11.9946 95.4722 10.8076C95.4722 9.61523 96.874 8.89014 99.0386 8.89551ZM94.5806 14.3633V13.2676H103.497V14.3633H94.5806ZM95.6118 18.3809V15.0508H102.433V18.3809H95.6118ZM96.9009 10.8076C96.8901 11.3555 97.6689 11.6348 99.0386 11.6348C100.387 11.6348 101.176 11.3555 101.176 10.8076C101.176 10.2437 100.387 9.95898 99.0386 9.95898C97.6689 9.95898 96.8901 10.2437 96.9009 10.8076ZM96.9653 17.2852H101.09V16.1357H96.9653V17.2852ZM113.003 14.1055V15.2012H109.201V18.4883H107.847V15.2012H104.087V14.1055H113.003ZM104.528 12.4619C106.504 12.2202 107.6 11.2642 107.745 10.3027H104.893V9.22852H112.208V10.3027H109.356C109.496 11.2642 110.576 12.2202 112.584 12.4619L112.09 13.5361C110.372 13.3052 109.142 12.5747 108.551 11.5703C107.955 12.5747 106.735 13.3052 105.033 13.5361L104.528 12.4619ZM122.07 8.71289V18.4883H120.759V8.71289H122.07ZM113.68 12.9453C113.68 10.7593 114.513 9.40576 115.807 9.41113C116.983 9.40576 117.789 10.5068 117.939 12.333H118.74V8.85254H120.029V18.0371H118.74V13.418H117.95C117.832 15.3354 117.01 16.501 115.807 16.501C114.513 16.501 113.68 15.1421 113.68 12.9453ZM114.948 12.9453C114.937 14.4492 115.259 15.1904 115.807 15.1797C116.371 15.1904 116.704 14.4492 116.699 12.9453C116.704 11.4468 116.371 10.7002 115.807 10.7002C115.259 10.7002 114.937 11.4468 114.948 12.9453ZM133.349 8.71289V12.4619H134.735V13.5898H133.349V18.4668H131.974V8.71289H133.349ZM125.529 15.7275C127.844 14.5674 129.09 13.0098 129.348 10.8291H126.087V9.71191H130.739C130.728 12.6338 129.589 15.1636 126.302 16.7803L125.529 15.7275ZM140.375 9.3252C140.375 9.66357 140.348 9.99121 140.289 10.3027H142.018V8.72363H143.382V14.5244H142.018V13.4609H139.794V12.3652H142.018V11.377H139.972C139.316 12.8916 137.872 13.9551 135.766 14.5137L135.25 13.418C137.453 12.854 138.688 11.7529 138.903 10.4316H135.809V9.3252H140.375ZM136.668 15.9961V14.9219H143.382V18.4668H142.018V15.9961H136.668ZM152.835 8.71289V18.5098H151.45V8.71289H152.835ZM144.94 12.8809C144.935 10.7485 146.025 9.40039 147.529 9.40039C149 9.40039 150.096 10.7485 150.096 12.8809C150.096 15.0293 149 16.3721 147.529 16.3721C146.025 16.3721 144.935 15.0293 144.94 12.8809ZM146.261 12.8809C146.256 14.3364 146.766 15.1313 147.529 15.126C148.27 15.1313 148.77 14.3364 148.775 12.8809C148.77 11.4307 148.27 10.6357 147.529 10.6357C146.766 10.6357 146.256 11.4307 146.261 12.8809ZM161.15 8.79883C163.4 8.79883 164.7 9.38965 164.706 10.4746C164.7 11.4468 163.653 12.0161 161.805 12.1235V12.6875H165.608V13.7725H156.692V12.6875H160.452V12.1182C158.625 12.0054 157.583 11.436 157.583 10.4746C157.583 9.38965 158.894 8.79883 161.15 8.79883ZM157.723 15.3301V14.3096H164.523V16.8018H159.077V17.3926H164.781V18.4238H157.734V15.8457H163.169V15.3301H157.723ZM159.023 10.4746C159.018 10.9419 159.716 11.1353 161.15 11.1406C162.595 11.1353 163.288 10.9419 163.288 10.4746C163.288 10.0288 162.595 9.80859 161.15 9.80859C159.716 9.80859 159.018 10.0288 159.023 10.4746ZM173.912 8.71289V12.4082H175.351V13.5361H173.912V18.5098H172.558V8.71289H173.912ZM166.596 10.6357V9.5293H171.119V13.3213H167.971V15.0938C169.395 15.0884 170.571 15.0239 171.871 14.8037L171.989 15.8994C170.496 16.1733 169.153 16.2324 167.434 16.2324H166.607V12.2363H169.754V10.6357H166.596ZM184.654 16.2217V17.3496H175.706V16.2217H177.704V13.8262C176.946 13.3696 176.49 12.6768 176.49 11.8174C176.49 10.2329 178.037 9.19092 180.164 9.18555C182.28 9.19092 183.843 10.2329 183.848 11.8174C183.843 12.6606 183.402 13.3428 182.667 13.7993V16.2217H184.654ZM177.843 11.8174C177.843 12.7734 178.762 13.3643 180.164 13.3643C181.544 13.3643 182.489 12.7734 182.495 11.8174C182.489 10.8345 181.544 10.2651 180.164 10.2705C178.762 10.2651 177.843 10.8345 177.843 11.8174ZM179.057 16.2217H181.281V14.3203C180.932 14.3901 180.556 14.4277 180.164 14.4277C179.771 14.4277 179.401 14.3901 179.057 14.3257V16.2217ZM186.48 17.5967C185.975 17.5967 185.567 17.1938 185.578 16.6943C185.567 16.2002 185.975 15.7974 186.48 15.8027C186.958 15.7974 187.372 16.2002 187.372 16.6943C187.372 17.1938 186.958 17.5967 186.48 17.5967Z" fill="#7EE1FF"/>
<path d="M100 31.4397L97.1477 28.5704H102.852L100 31.4397Z" fill="#191E57" stroke="#7EE1FF" stroke-width="2.2"/>
<path d="M99.9999 31L93.5387 24.5001L106.461 24.5001L99.9999 31Z" fill="#191E57"/>
</svg>
